# xmcd
#
# Track frame offsets:
#	150
#	12166
#	24752
#	35586
#	46661
#	57964
#	68926
#	78469
#	87693
#	96324
#	104664
#	114097
#	127511
#	139481
#	149729
#	160668
#	171876
#	182594
#	193919
#	203719
#	215122
#	227731
#	237926
#	247062
#	260135
#
# Disc length: 3642 seconds
#
# Revision: 1
# Processed by: cddbd v1.5.1PL2 Copyright (c) Steve Scherf et al.
# Submitted via: audiograbber 1.83.01
#
DISCID=6c0e3819
DTITLE=Various Artist - Swingbillies CD4
DYEAR=2005
DGENRE=Oldies
TTITLE0=Bill Haley - Behind The Eight Ball
TTITLE1=Eddie Cletro - Flyin' Saucers Boogie
TTITLE2=Hank Thompson - Honky-Tonk Girl
TTITLE3=Delbert Parker - Why Don't You Love Me
TTITLE4=Arkie Shibley - Hot Rod Race
TTITLE5=Art Gunn - Barn Dance Boogie
TTITLE6=Little Jim Dickens - Blackeyed Joe's
TTITLE7=Ramblim' Jimmy Dolen - Look A Here
TTITLE8=Betty Hutton - The Honeymoon's Over Tennessee Ernie Ford
TTITLE9=Davis Sisters - Fiddle Diddle Boogie
TTITLE10=Chuck Miller - Hopahula Boogie
TTITLE11=Hawkshaw Hawkins - Pan American
TTITLE12=Billy Hughes - Cocaine Blues
TTITLE13=George Jones - Why, Baby, Why
TTITLE14=Tennessee Ernie Ford - Tennessee Border
TTITLE15=Merrill Moore - Snatchin' And Grabbin'
TTITLE16=Milo Twins - Downtown Boogie
TTITLE17=Forest Rye - Wildcat Boogie
TTITLE18=Justin Tubb - Pepper Hot Baby
TTITLE19=Johnny Tyler - Freight Train Boogie
TTITLE20=Paul Howard - Rootie Tootie
TTITLE21=Hank Penny - Catch 'Em Young, Treat 'Em Rough, Tell 'Em Nothing
TTITLE22=Curtis Gordon - Baby, Baby Me
TTITLE23=Bob Wills - What's The Matter At The Mill
TTITLE24=Hank Williams - Mind Your Own Business
EXTD=
EXTT0=
EXTT1=
EXTT2=
EXTT3=
EXTT4=
EXTT5=
EXTT6=
EXTT7=
EXTT8=
EXTT9=
EXTT10=
EXTT11=
EXTT12=
EXTT13=
EXTT14=
EXTT15=
EXTT16=
EXTT17=
EXTT18=
EXTT19=
EXTT20=
EXTT21=
EXTT22=
EXTT23=
EXTT24=
PLAYORDER=
